<!-- width="200px" height="247px"  -->
<svg version="1.1" id="root" style="shape-rendering:geometricPrecision; text-rendering:geometricPrecision; image-rendering:optimizeQuality; fill-rule:evenodd; clip-rule:evenodd" xmlns="http://www.w3.org/2000/svg">
  <defs></defs>
  <g>
    <path style="opacity:0.944" d="M 91.947 15.059 C 93.916 13.288 93.763 13.075 97.5 9.5 C 96.567 14.462 95.853 17.974 98.093 22.773 C 102.314 28.691 107.541 32.098 113.5 36 C 118.867 40.755 121.533 46.755 121.5 54 C 120.695 60.527 119.695 67.027 118.5 73.5 C 117.303 81.937 123.914 86.634 130.68 81.82 C 134.471 79.123 134.722 78.736 136.047 75.233 C 137.274 71.989 136.233 68.042 136.047 65.314 C 143.183 72.508 146.229 83.087 143 93.5 C 140.35 100.135 138.051 105.588 133.367 111.5 C 127.958 120.484 133.763 130.936 144.499 124 C 147.977 122.186 150.038 117.593 151.5 113.5 C 158.898 130.027 157.731 146.027 148 161.5 C 140.925 172.795 131.092 179.795 118.5 182.5 C 128.323 176.188 132.823 167.188 132 155.5 C 126.529 162.422 119.616 163.456 117 154.5 C 115.648 145.748 120.179 139.047 121 129.5 C 121.394 124.92 121.667 124.167 121 121.5 C 118.017 129.17 112.591 131.263 108 124.5 C 103.176 114.754 101.176 104.421 102 93.5 C 100.748 95.001 99.476 97.214 98.727 99.32 C 95.967 107.293 95.667 109.253 94 115.586 C 90.713 123.937 83.707 120.631 82 112.5 C 81.333 117.833 80.641 124.554 81.454 129.867 C 82.622 137.494 82.893 136.48 84.133 144.866 C 85.687 155.376 77.026 157.651 67 152.5 C 67.565 164.296 70.759 172.869 77.128 179.039 C 78.123 180.003 78.65 180.359 82.547 183.68 C 60.857 176.322 47.643 162.142 44 139.5 C 41.87 128.837 42.037 118.776 44.5 108.5 C 46.055 111.404 48.055 114.07 50.5 116.5 C 57.405 122.253 64.332 118.613 68 110.5 C 69.68 104.527 70.226 99.347 68 92.5 C 65.39 86.947 63.057 81.281 61 75.5 C 59.243 67.994 60.743 61.328 65.5 55.5 C 68.294 68.396 76.447 73.263 88.32 67.367 C 93.765 63.558 98.931 60.423 95.274 47.234 C 91.57 40.586 90.602 38.439 88 31.5 C 86.379 23.06 87.239 20.858 91.947 15.059 Z"></path>
  </g>
  <g>
    <path style="opacity:0.942" d="M 36.599 180.5 C 100.485 199.677 35.636 180.593 99.5 199.5 C 162.795 181.253 99.585 199.409 162.674 181.273 C 170.634 181.084 171.971 187.779 172 187.941 C 171.714 187.681 174.706 195.621 167.86 198.367 C 128.404 209.797 167.452 198.491 128.127 209.547 C 168.776 221.012 127.815 209.161 168.953 221 C 175.376 223.589 173.75 232.164 173.64 232.234 C 173.561 232.168 171.417 239.724 163.5 237.5 C 99.449 219.508 163.733 237.523 99.5 219.5 C 39.524 237.323 99.328 219.652 39.5 237 C 30.143 239.668 27.998 230.868 27.867 230.553 C 27.725 230.762 26.427 221.736 32.96 219.953 C 69.975 209.849 32.809 219.904 70.053 209.82 C 31.822 197.398 69.922 209.662 31.96 197.273 C 25.254 195.085 27.031 186.454 27.36 185.593 C 27.369 185.481 30.996 178.955 36.873 180.5"></path>
  </g>
</svg>