<!--  width="2000.2" height="2000.2"  -->
<svg id="root" viewBox="0 0 2000.2 2000.2" width="2000.2" height="2000.2" xmlns="http://www.w3.org/2000/svg" version="1.1">
 <defs>
  <linearGradient id="gradient1" y2="0" x2="1" y1="0" x1="0">
   <stop offset="0.1" stop-color="transparent"/>
   <stop offset="0.97969" data-offset="0.67969" stop-color="#00ffff"/>
  </linearGradient>
 </defs>
 <g>
  <title>Layer 1</title>
  <g id="svg_26">
   <path fill="url(#gradient1)" d="m992.77334,996.89352l-902.62287,-117.62617c-5.37814,39.17877 -8.15598,78.47674 -8.43613,117.66285l911.05945,-0.03485l-0.00046,-0.00183z" id="path5100"/>
   <path transform="rotate(15 569.235 821.543)" fill="url(#gradient1)" d="m1024.76391,880.33792l-902.62287,-117.62616c-5.37814,39.17876 -8.15597,78.47674 -8.43612,117.66284l911.05945,-0.03484l-0.00046,-0.00184z" id="svg_2"/>
   <path transform="rotate(30 625.916 713.496)" fill="url(#gradient1)" d="m1081.4455,772.29097l-902.62287,-117.62616c-5.37814,39.17876 -8.15597,78.47674 -8.43612,117.66284l911.05945,-0.03484l-0.00046,-0.00184z" id="svg_4"/>
   <path transform="rotate(45 713.708 630.743)" fill="url(#gradient1)" d="m1169.23763,689.53744l-902.62287,-117.62616c-5.37814,39.17876 -8.15597,78.47674 -8.43612,117.66284l911.05945,-0.03484l-0.00046,-0.00184z" id="svg_5"/>
   <path transform="rotate(60 819.714 567.61)" fill="url(#gradient1)" d="m1275.24335,626.40474l-902.62287,-117.62616c-5.37814,39.17876 -8.15597,78.47674 -8.43612,117.66284l911.05945,-0.03484l-0.00046,-0.00184z" id="svg_6"/>
   <path transform="rotate(75 937.727 538.087)" fill="url(#gradient1)" d="m1393.25575,596.88135l-902.62287,-117.62616c-5.37814,39.17876 -8.15597,78.47674 -8.43612,117.66284l911.05945,-0.03484l-0.00046,-0.00184z" id="svg_7"/>
   <path transform="rotate(90 1059.53 535.831)" fill="url(#gradient1)" d="m1515.05897,594.62615l-902.62287,-117.62616c-5.37814,39.17876 -8.15597,78.47674 -8.43612,117.66284l911.05945,-0.03484l-0.00046,-0.00184z" id="svg_8"/>
   <path transform="rotate(105 1177.69 569.235)" fill="url(#gradient1)" d="m1633.21906,628.03018l-902.62287,-117.62616c-5.37814,39.17876 -8.15597,78.47674 -8.43612,117.66284l911.05945,-0.03484l-0.00046,-0.00184z" id="svg_9"/>
   <path transform="rotate(120 1283.68 628.914)" fill="url(#gradient1)" d="m1739.21087,687.7092l-902.62287,-117.62616c-5.37814,39.17876 -8.15597,78.47674 -8.43612,117.66284l911.05945,-0.03484l-0.00046,-0.00184z" id="svg_10"/>
   <path transform="rotate(135 1370.69 715.711)" fill="url(#gradient1)" d="m1826.21466,774.5061l-902.62287,-117.62616c-5.37814,39.17876 -8.15597,78.47674 -8.43612,117.66284l911.05945,-0.03484l-0.00046,-0.00184z" id="svg_11"/>
   <path transform="rotate(150 1430.9 817.713)" fill="url(#gradient1)" d="m1886.43221,876.50804l-902.62287,-117.62616c-5.37814,39.17876 -8.15597,78.47674 -8.43612,117.66284l911.05945,-0.03484l-0.00046,-0.00184z" id="svg_12"/>
   <path transform="rotate(165 1464.22 934.733)" fill="url(#gradient1)" d="m1919.74918,993.52726l-902.62287,-117.62616c-5.37814,39.17876 -8.15597,78.47674 -8.43612,117.66284l911.05945,-0.03484l-0.00046,-0.00184z" id="svg_13"/>
   <path transform="rotate(180 1462.53 1056.83)" fill="url(#gradient1)" d="m1918.05896,1115.6262l-902.62287,-117.62616c-5.37814,39.17876 -8.15597,78.47674 -8.43612,117.66284l911.05945,-0.03484l-0.00046,-0.00184z" id="svg_14"/>
   <path transform="rotate(-165 1433.79 1174.7)" fill="url(#gradient1)" d="m1889.31791,1233.4951l-902.62287,-117.62616c-5.37814,39.17876 -8.15597,78.47674 -8.43612,117.66284l911.05945,-0.03484l-0.00046,-0.00184z" id="svg_15"/>
   <path transform="rotate(-150 1372.11 1282.69)" fill="url(#gradient1)" d="m1827.63839,1341.48131l-902.62287,-117.62616c-5.37814,39.17876 -8.15597,78.47674 -8.43612,117.66284l911.05945,-0.03484l-0.00046,-0.00184z" id="svg_16"/>
   <path transform="rotate(-135 1287.53 1370.69)" fill="url(#gradient1)" d="m1743.05904,1429.48656l-902.62287,-117.62616c-5.37814,39.17876 -8.15597,78.47674 -8.43612,117.66284l911.05945,-0.03484l-0.00046,-0.00184z" id="svg_17"/>
   <path transform="rotate(-120 1180.84 1429.9)" fill="url(#gradient1)" d="m1636.3699,1488.69677l-902.62287,-117.62616c-5.37814,39.17876 -8.15597,78.47674 -8.43612,117.66284l911.05945,-0.03484l-0.00046,-0.00184z" id="svg_18"/>
   <path transform="rotate(-105 1063.1 1462.23)" fill="url(#gradient1)" d="m1518.63007,1521.02402l-902.62287,-117.62616c-5.37814,39.17876 -8.15597,78.47674 -8.43612,117.66284l911.05945,-0.03484l-0.00046,-0.00184z" id="svg_19"/>
   <path transform="rotate(-90 941.53 1462.83)" fill="url(#gradient1)" d="m1397.05898,1521.62617l-902.62287,-117.62616c-5.37814,39.17876 -8.15597,78.47674 -8.43612,117.66284l911.05945,-0.03484l-0.00046,-0.00184z" id="svg_20"/>
   <path transform="rotate(-75 823.547 1432.79)" fill="url(#gradient1)" d="m1279.076,1491.58266l-902.62287,-117.62616c-5.37814,39.17876 -8.15597,78.47674 -8.43612,117.66284l911.05945,-0.03484l-0.00046,-0.00184z" id="svg_21"/>
   <path transform="rotate(-60 717.495 1373.1)" fill="url(#gradient1)" d="m1173.02414,1431.89885l-902.62287,-117.62616c-5.37814,39.17876 -8.15597,78.47674 -8.43612,117.66284l911.05945,-0.03484l-0.00046,-0.00184z" id="svg_22"/>
   <path transform="rotate(-45 631.743 1287.53)" fill="url(#gradient1)" d="m1087.27201,1346.32932l-902.62287,-117.62616c-5.37814,39.17876 -8.15597,78.47674 -8.43612,117.66284l911.05945,-0.03484l-0.00046,-0.00184z" id="svg_23"/>
   <path transform="rotate(-30 568.61 1177.85)" fill="url(#gradient1)" d="m1024.13949,1236.64131l-902.62287,-117.62616c-5.37814,39.17876 -8.15597,78.47674 -8.43612,117.66284l911.05945,-0.03484l-0.00046,-0.00184z" id="svg_24"/>
   <path transform="rotate(-15 537.086 1060.11)" fill="url(#gradient1)" d="m992.61572,1118.90311l-902.62287,-117.62616c-5.37814,39.17876 -8.15597,78.47674 -8.43612,117.66284l911.05945,-0.03484l-0.00046,-0.00184z" id="svg_25"/>
  </g>
 </g>
</svg>